PathFileType	4	(X/Y/Z)	C:/Users/opensim2020/Desktop/walking_exp_matlab/subject01_walking16_run.trc																																																																																																																																																																																											
DataRate	CameraRate	NumFrames	NumMarkers	Units	OrigDataRate	OrigDataStartFrame	OrigNumFrames																																																																																																																																																																																							
100	100	4	63	mm	100	348	89																																																																																																																																																																																							
Frame#	Time	LKNE			RELB			LTHI			RUPA			LTIB			RFRM			LTOE			LSHO			RWRA			RSHO			RWRB			STRN			RFIN			RBHD			CLAV			LHEE			LFHD			RASI			RFHD			LBHD			C7			LWRB			LWRA			LFRM			RTHI			RKNE			LELB			LFIN			LUPA			RTIB			RANK			RTOE			RHEE			T10			RBAK			LASI			LPSI			RPSI			LANK			*39			*40			*41			*42			*43			*44			*45			*46			*47			*48			*49			*50			*51			*52			*53			*54			*55			*56			*57			*58			*59			*60			*61			*62		
		X1	Y1	Z1	X2	Y2	Z2	X3	Y3	Z3	X4	Y4	Z4	X5	Y5	Z5	X6	Y6	Z6	X7	Y7	Z7	X8	Y8	Z8	X9	Y9	Z9	X10	Y10	Z10	X11	Y11	Z11	X12	Y12	Z12	X13	Y13	Z13	X14	Y14	Z14	X15	Y15	Z15	X16	Y16	Z16	X17	Y17	Z17	X18	Y18	Z18	X19	Y19	Z19	X20	Y20	Z20	X21	Y21	Z21	X22	Y22	Z22	X23	Y23	Z23	X24	Y24	Z24	X25	Y25	Z25	X26	Y26	Z26	X27	Y27	Z27	X28	Y28	Z28	X29	Y29	Z29	X30	Y30	Z30	X31	Y31	Z31	X32	Y32	Z32	X33	Y33	Z33	X34	Y34	Z34	X35	Y35	Z35	X36	Y36	Z36	X37	Y37	Z37	X38	Y38	Z38	X39	Y39	Z39	X40	Y40	Z40	X41	Y41	Z41	X42	Y42	Z42	X43	Y43	Z43	X44	Y44	Z44	X45	Y45	Z45	X46	Y46	Z46	X47	Y47	Z47	X48	Y48	Z48	X49	Y49	Z49	X50	Y50	Z50	X51	Y51	Z51	X52	Y52	Z52	X53	Y53	Z53	X54	Y54	Z54	X55	Y55	Z55	X56	Y56	Z56	X57	Y57	Z57	X58	Y58	Z58	X59	Y59	Z59	X60	Y60	Z60	X61	Y61	Z61	X62	Y62	Z62	X63	Y63	Z63
																																																																																																																																																																																														
1	0	-1915.01184	419.80338	-536.50018	-2029.36279	1101.67468	-90.39658	-1902.75854	550.45203	-551.23975	-1964.33862	1207.96301	-116.35112	-2090.26221	404.68857	-538.04413	-1979.04907	982.26544	-93.68851	-2361.1499	249.88054	-485.99545	-1777.88367	1337.9873	-536.80469	-1870.64172	914.21887	-149.40659	-1813.95752	1334.99854	-229.32399	-1906.11816	884.5849	-112.19992	-1736.09619	1139.18286	-378.3894	-1832.74536	848.09497	-120.64895	-1857.79297	1566.45032	-314.27148	-1745.37671	1302.9115	-374.01486	-2322.32666	437.42917	-432.17926	-1776.04626	1614.10437	-453.04492	-1887.54565	903.6684	-292.8988	-1751.98376	1633.5249	-342.58878	-1876.86621	1549.66553	-430.96786	-1879.35645	1388.06531	-391.15866	-1750.96008	889.96387	-580.23938	-1740.11072	931.31146	-537.57263	-1813.06934	973.21497	-650.6947	-1863.3584	582.9657	-225.3287	-1804.72937	432.92044	-249.66745	-1888.21509	1061.26208	-702.76996	-1692.00793	868.49042	-526.89716	-1843.48438	1201.85718	-658.68079	-1869.89941	269.73813	-253.62764	-1911.38013	69.8343	-319.47327	-1771.87439	24.06126	-329.4234	-1961.94482	44.41745	-372.5032	-1985.80054	1133.24316	-408.82648	-1975.97302	1229.50977	-325.49564	-1878.28491	894.83215	-497.24789	-2051.54761	938.6767	-466.82306	-2059.01636	939.39368	-319.79703	-2302.40356	396.30246	-486.39688	1973.04907	1023.9314	-3102.18213	2012.6521	1022.07037	-3140.71899	NaN	NaN	NaN	NaN	NaN	NaN	NaN	NaN	NaN	NaN	NaN	NaN	NaN	NaN	NaN	NaN	NaN	NaN	NaN	NaN	NaN	NaN	NaN	NaN	-1773.23315	1663.55627	-368.73193	NaN	NaN	NaN	NaN	NaN	NaN	NaN	NaN	NaN	NaN	NaN	NaN	NaN	NaN	NaN	NaN	NaN	NaN	NaN	NaN	NaN	NaN	NaN	NaN	NaN	NaN	NaN	NaN	NaN	NaN	NaN	NaN	NaN	NaN	NaN	NaN	NaN	NaN	NaN
2	0.01	-1834.20776	418.379	-538.45679	-1968.63159	1077.75903	-91.45856	-1834.52954	548.39673	-553.79907	-1909.38013	1189.22827	-115.97143	-2007.88257	401.73068	-540.86365	-1910.76965	962.3255	-103.3045	-2274.18237	247.12323	-492.79977	-1738.98706	1336.43359	-538.12244	-1799.41174	906.21423	-167.29855	-1767.64734	1326.85327	-227.88373	-1831.5752	871.61194	-129.76749	-1689.52356	1135.41553	-382.38293	-1757.92749	841.01141	-142.9424	-1812.9751	1561.69702	-310.38055	-1699.99963	1298.07117	-375.86728	-2241.50854	434.83517	-435.27744	-1730.81152	1610.62915	-449.49496	-1844.45935	898.9964	-293.60281	-1707.90942	1629.78748	-339.19324	-1833.23486	1545.9397	-426.90033	-1836.04712	1382.23413	-387.30994	-1735.41248	874.69525	-607.73468	-1719.83081	910.43695	-560.26819	-1793.52087	967.70447	-667.07825	-1835.18481	576.14838	-227.53438	-1777.61035	424.4436	-253.73148	-1861.89734	1067.13489	-707.31604	-1676.46863	843.08649	-559.9566	-1810.56018	1204.5343	-659.4201	-1850.04065	264.99359	-256.46725	-1907.29297	69.98171	-322.51556	-1771.19226	23.68601	-330.62686	-1961.4021	43.4353	-376.05048	-1942.00281	1125.74915	-406.58908	-1930.9679	1220.41504	-321.02472	-1833.11646	890.08881	-496.65182	-2008.08313	930.77307	-468.74808	-2017.22253	933.90729	-319.43658	-2222.87793	396.20322	-489.92209	1973.1051	1023.28674	-3101.89551	2012.5741	1022.01465	-3140.57788	NaN	NaN	NaN	NaN	NaN	NaN	NaN	NaN	NaN	NaN	NaN	NaN	NaN	NaN	NaN	NaN	NaN	NaN	NaN	NaN	NaN	NaN	NaN	NaN	-1729.26135	1659.35083	-364.1727	NaN	NaN	NaN	NaN	NaN	NaN	NaN	NaN	NaN	NaN	NaN	NaN	NaN	NaN	NaN	NaN	NaN	NaN	NaN	NaN	NaN	NaN	NaN	NaN	NaN	NaN	NaN	NaN	NaN	NaN	NaN	NaN	NaN	NaN	NaN	NaN	NaN	NaN	NaN
3	0.02	-1751.85034	422.03983	-538.5932	-1905.16138	1055.15686	-93.84136	-1765.03979	553.58539	-556.53711	-1852.75244	1172.05261	-117.24915	-1923.87598	399.87164	-542.70673	-1839.83215	944.92285	-114.52301	-2182.51001	239.84206	-498.48657	-1699.31531	1334.44824	-539.39795	-1729.01794	900.53491	-185.10326	-1718.84265	1320.7771	-226.26405	-1756.07739	861.81012	-149.31023	-1643.56958	1131.75745	-386.24777	-1681.54968	838.16418	-166.88177	-1767.93335	1556.92554	-306.99228	-1655.45325	1294.81604	-377.40836	-2161.46851	428.68884	-439.27518	-1690.47986	1609.21667	-446.72894	-1802.2262	894.70264	-293.54694	-1663.95947	1626.93628	-336.24179	-1789.79004	1541.89941	-423.53589	-1792.46875	1378.23535	-383.80939	-1721.04309	865.26245	-635.18347	-1703.0686	894.80457	-585.04224	-1774.97803	966.95496	-683.00488	-1807.94189	571.21643	-229.15271	-1752.4657	418.67905	-257.51923	-1836.37671	1073.427	-711.75555	-1663.02942	824.80243	-594.92181	-1777.36609	1206.31226	-659.90375	-1828.65771	259.48721	-261.46619	-1904.10303	72.09484	-325.52484	-1771.1344	23.59354	-331.66382	-1961.40002	43.14708	-377.04483	-1898.04834	1117.80383	-404.53143	-1885.97229	1210.40747	-316.8071	-1788.73657	884.68689	-496.11755	-1966.22607	922.16821	-469.91968	-1976.56335	927.93506	-319.56058	-2135.74146	388.17191	-492.81418	1973.06201	1023.82715	-3101.91724	2012.5127	1022.15668	-3140.60107	NaN	NaN	NaN	NaN	NaN	NaN	NaN	NaN	NaN	NaN	NaN	NaN	NaN	NaN	NaN	NaN	NaN	NaN	NaN	NaN	NaN	NaN	NaN	NaN	-1685.73267	1654.97607	-359.793	NaN	NaN	NaN	NaN	NaN	NaN	NaN	NaN	NaN	NaN	NaN	NaN	NaN	NaN	NaN	NaN	NaN	NaN	NaN	NaN	NaN	NaN	NaN	NaN	NaN	NaN	NaN	NaN	NaN	NaN	NaN	NaN	NaN	NaN	NaN	NaN	NaN	NaN	NaN
4	0.03	-1669.36035	433.14142	-537.69489	-1839.30603	1035.61548	-97.82078	-1694.55994	562.29431	-558.58868	-1794.6571	1157.28333	-119.69148	-1838.96753	400.93649	-543.24225	-1767.37085	931.82147	-127.33221	-2086.57861	229.62102	-504.79959	-1658.29944	1332.53857	-540.68744	-1657.63831	899.69043	-203.94302	-1670.16626	1315.74329	-225.97888	-1679.13452	856.75952	-169.93489	-1597.21606	1128.76013	-389.52695	-1605.17444	840.87903	-191.84987	-1722.74817	1552.349	-304.336	-1609.29907	1291.6853	-379.05499	-2081.69287	418.43661	-442.40796	-1645.2356	1606.27002	-444.30917	-1759.52893	890.93915	-292.85504	-1620.14673	1624.40759	-334.00787	-1745.64648	1537.88867	-420.64227	-1746.66235	1376.23022	-381.52249	-1707.36987	861.90509	-661.64874	-1683.59094	885.41907	-610.93774	-1755.95276	971.00897	-698.24823	-1780.67529	567.17352	-231.38684	-1728.77686	413.18704	-260.35336	-1810.02698	1080.23083	-716.20789	-1650.54065	814.41382	-629.46375	-1743.31763	1207.52173	-660.49432	-1812.51147	255.37453	-264.64273	-1902.8938	73.31308	-327.83127	-1771.52466	23.45196	-331.97568	-1960.57043	48.79444	-381.39539	-1853.76111	1111.9342	-402.14468	-1839.98132	1202.33569	-313.98276	-1745.08032	879.50647	-495.51904	-1924.96179	914.28479	-470.41541	-1936.27405	922.5932	-321.59598	-2050.68555	379.43494	-495.76404	1973.1366	1023.56116	-3102.00366	2012.45227	1022.06201	-3140.74365	NaN	NaN	NaN	NaN	NaN	NaN	NaN	NaN	NaN	NaN	NaN	NaN	NaN	NaN	NaN	NaN	NaN	NaN	NaN	NaN	NaN	NaN	NaN	NaN	-1642.80652	1651.42188	-355.76587	NaN	NaN	NaN	NaN	NaN	NaN	NaN	NaN	NaN	NaN	NaN	NaN	NaN	NaN	NaN	NaN	NaN	NaN	NaN	NaN	NaN	NaN	NaN	NaN	NaN	NaN	NaN	NaN	NaN	NaN	NaN	NaN	NaN	NaN	NaN	NaN	NaN	NaN	NaN
